# xmcd CD database file generated by Grip 3.0.7
# 
# Track frame offsets:
#       212
#       25750
#       52995
#       73975
#       93865
#       117420
#       136700
#       158762
#       185610
# 
# Disc length: 2735 seconds
# 
# Revision: 2
# Processed by: cddbd v1.4PL0 Copyright (c) Steve Scherf et al.
# Submitted via: Grip 3.0.7
# 
DISCID=720aad09
DTITLE=Nick Cave and The Bad Seeds - The Good Son
DYEAR=1900
DGENRE=Blues
TTITLE0=Fio Na Cruz
TTITLE1=The Good Son
TTITLE2=Sorrow's Child
TTITLE3=The Weeping
TTITLE4=The Ship Song
TTITLE5=The Hammer Song
TTITLE6=Lament
TTITLE7=The Witness Song
TTITLE8=Lucy
EXTD=
EXTT0=
EXTT1=
EXTT2=
EXTT3=
EXTT4=
EXTT5=
EXTT6=
EXTT7=
EXTT8=
PLAYORDER=
